<svg width="2638" height="454" viewBox="0 0 2638 454" fill="none" xmlns="http://www.w3.org/2000/svg">
<path d="M0.978516 454V0.435547H149.318V454H0.978516ZM173.244 91.0117V0.435547H342.775L433.352 91.0117V246.529L342.775 337.447H173.244V246.529H282.961V91.0117H173.244ZM850.275 454V284.127H654.084L563.166 193.209V91.0117L654.084 0.435547H705.354V161.422H913.85L1001.69 252.34V363.424L911.115 454H850.275ZM729.279 82.125V0.435547H910.773L989.387 79.3906V127.584H850.275V82.125H729.279ZM563.166 317.965H714.24V371.969H826.35V454H639.387L563.166 363.424V317.965ZM1442.88 404.439H1294.54L1325.99 314.547H1408.02L1286.68 0.435547H1434L1614.81 454H1462.02L1442.88 404.439ZM1254.21 454H1108.26L1270.28 20.9434L1337.27 201.07L1254.21 454ZM1929.19 454H1782.22L1618.16 0.435547H1772.31L1929.19 454ZM1952.78 0.435547H2104.53L1947.65 440.328L1879.63 240.719L1952.78 0.435547ZM2205.29 454V0.435547H2353.63V454H2205.29ZM2377.56 91.0117V0.435547H2547.09L2637.67 91.0117V246.529L2547.09 337.447H2377.56V246.529H2487.28V91.0117H2377.56Z" fill="black"/>
</svg>
