<svg width="2148" height="895" viewBox="0 0 2148 895" fill="none" xmlns="http://www.w3.org/2000/svg">
<path d="M1006.93 98.9931C963.947 98.9931 919.488 105.302 877.359 110.297C697.493 131.622 516.868 153.751 345.014 208.447C267.483 233.123 187.093 260.959 124.377 311.12C20.6558 394.076 -15.0503 507.705 63.9398 618.571C126.364 706.186 227.629 753.425 333.01 785.295C458.126 823.134 592.395 847.441 722.954 862.723C985.184 893.418 1257.53 860.084 1518.99 833.335C1665.82 818.312 1806.24 791.381 1946.81 750.067C2018.98 728.855 2109.38 696.135 2123.98 620.643C2150.5 483.514 1996.5 373.468 1891.96 299.816C1801.5 236.084 1707.67 176.456 1603.85 131.961C1482.28 79.8603 1357.24 47.2439 1226.74 21" stroke="#F9B506" stroke-width="40" stroke-linecap="round"/>
</svg>
